HIERARCHY
ROOT Hips
{
 OFFSET 0.000000 0.000000 0.000000
 CHANNELS 6 Xposition Yposition Zposition Yrotation Xrotation Zrotation
 JOINT Chest
 {
  OFFSET 0.000000 9.585900 0.002600
  CHANNELS 3 Yrotation Xrotation Zrotation
  JOINT Chest2
  {
   OFFSET 0.000000 9.601200 -0.005300
   CHANNELS 3 Yrotation Xrotation Zrotation
   JOINT Chest3
   {
    OFFSET 0.000000 9.561800 0.000000
    CHANNELS 3 Yrotation Xrotation Zrotation
    JOINT Chest4
    {
     OFFSET 0.000000 9.552100 0.000000
     CHANNELS 3 Yrotation Xrotation Zrotation
     JOINT Neck
     {
      OFFSET 0.000000 14.453000 0.000000
      CHANNELS 3 Yrotation Xrotation Zrotation
      JOINT Head
      {
       OFFSET 0.000000 8.936500 -0.011300
       CHANNELS 3 Yrotation Xrotation Zrotation
       End Site
       {
        OFFSET 0.000000 17.073600 -0.006000
       }
      }
     }
     JOINT RightCollar
     {
      OFFSET -2.921100 9.558500 0.000000
      CHANNELS 3 Yrotation Xrotation Zrotation
      JOINT RightShoulder
      {
       OFFSET -13.519700 0.000000 0.000000
       CHANNELS 3 Yrotation Xrotation Zrotation
       JOINT RightElbow
       {
        OFFSET 0.000000 -29.696600 0.000000
        CHANNELS 3 Yrotation Xrotation Zrotation
        JOINT RightWrist
        {
         OFFSET 0.000000 -24.004700 0.000000
         CHANNELS 3 Yrotation Xrotation Zrotation
         End Site
         {
          OFFSET 0.000000 -17.728500 0.000000
         }
        }
       }
      }
     }
     JOINT LeftCollar
     {
      OFFSET 2.921100 9.558500 0.000000
      CHANNELS 3 Yrotation Xrotation Zrotation
      JOINT LeftShoulder
      {
       OFFSET 13.519700 0.000000 0.000000
       CHANNELS 3 Yrotation Xrotation Zrotation
       JOINT LeftElbow
       {
        OFFSET 0.000000 -29.696600 0.000000
        CHANNELS 3 Yrotation Xrotation Zrotation
        JOINT LeftWrist
        {
         OFFSET 0.000000 -24.004700 0.000000
         CHANNELS 3 Yrotation Xrotation Zrotation
         End Site
         {
          OFFSET 0.000000 -17.728500 0.000000
         }
        }
       }
      }
     }
    }
   }
  }
 }
 JOINT RightHip
 {
  OFFSET -7.771700 -0.012900 -0.001300
  CHANNELS 3 Yrotation Xrotation Zrotation
  JOINT RightKnee
  {
   OFFSET 0.000000 -40.869800 0.001200
   CHANNELS 3 Yrotation Xrotation Zrotation
   JOINT RightAnkle
   {
    OFFSET 0.000000 -39.717900 0.002100
    CHANNELS 3 Yrotation Xrotation Zrotation
    JOINT RightToe
    {
     OFFSET 0.000000 -4.965400 11.033500
     CHANNELS 3 Yrotation Xrotation Zrotation
     End Site
     {
      OFFSET 0.000000 -1.423100 5.872300
     }
    }
   }
  }
 }
 JOINT LeftHip
 {
  OFFSET 7.771700 -0.012900 -0.001300
  CHANNELS 3 Yrotation Xrotation Zrotation
  JOINT LeftKnee
  {
   OFFSET 0.000000 -40.869800 0.001200
   CHANNELS 3 Yrotation Xrotation Zrotation
   JOINT LeftAnkle
   {
    OFFSET 0.000000 -39.717900 0.002100
    CHANNELS 3 Yrotation Xrotation Zrotation
    JOINT LeftToe
    {
     OFFSET 0.000000 -4.965400 11.033500
     CHANNELS 3 Yrotation Xrotation Zrotation
     End Site
     {
      OFFSET 0.000000 -1.423100 5.872300
     }
    }
   }
  }
 }
}
MOTION
Frames: 9
Frame Time: 0.008333
0.000000 85.388000 0.000000 0.000000 -5.767877 0.000000 0.000000 11.653817 0.000000 0.000000 -5.885947 0.000000 0.000000 -0.000000 0.000000 0.000000 -0.000000 0.000000 0.000000 12.528835 0.000000 0.000000 0.711642 0.000000 0.000000 -0.000000 0.000000 0.000000 0.000000 -90.000000 0.000000 -2.309062 0.000000 0.000000 2.309062 0.000000 0.000000 -0.000000 0.000000 0.000000 -0.000000 90.000000 0.000000 -2.309062 0.000000 0.000000 2.309062 0.000000 0.000000 8.520406 0.000000 0.000000 1.905762 0.000000 -0.000000 -4.658285 0.000000 0.000000 -0.000000 0.000000 0.000000 8.520406 0.000000 0.000000 1.905762 0.000000 -0.000000 -4.658285 0.000000 0.000000 -0.000000 0.000000
-39.417653 57.915433 12.469715 176.407119 -51.049246 -2.828033 2.189005 20.537057 3.672282 1.060553 11.768147 1.993512 1.379269 14.707893 2.532533 1.057721 11.769815 1.991479 2.854016 18.535084 1.171772 4.819701 -1.362394 1.241506 -0.147027 3.967810 -1.314688 -3.529783 -7.067441 -9.461566 -60.976962 -66.353589 107.508712 9.900002 15.356783 -25.398397 -9.645660 -6.877566 1.433674 -11.525861 -46.473791 29.473746 43.777394 -64.286064 -41.111749 -1.534250 -6.558567 4.989920 3.198887 -20.814979 -2.697562 -33.940351 73.266678 -37.667128 6.878915 -13.721840 11.410212 0.054906 -0.012181 -0.080235 -6.659938 -17.787849 6.164478 86.009679 82.069737 85.603833 1.329389 -21.738569 -18.595118 -0.017658 0.030556 -0.036647
-39.413551 57.916538 12.464365 176.451760 -51.037031 -2.841016 2.178324 20.524586 3.672666 1.108850 11.765921 2.025391 1.417350 14.700792 2.556473 1.074908 11.765965 2.005762 2.714581 18.473042 1.187503 4.623790 -1.632504 1.371987 -0.195186 3.933485 -1.358102 -3.643693 -6.819320 -9.442055 -61.174450 -66.426332 107.614249 9.850583 15.365229 -25.479643 -9.608491 -6.925648 1.482073 -11.766196 -46.482488 29.912433 44.033371 -64.814399 -40.683026 -1.579427 -6.556572 4.920130 3.105280 -20.836419 -2.760215 -33.877708 73.302659 -37.584422 6.919920 -13.719993 11.365021 0.058871 -0.035606 -0.067599 -6.695468 -17.797167 6.135732 86.025880 82.063287 85.636223 1.328526 -21.743116 -18.625645 -0.010195 0.020917 -0.020175
-39.409223 57.917813 12.457245 176.456356 -51.029438 -2.822058 2.196392 20.515708 3.675930 1.118878 11.766733 2.034741 1.489139 14.705393 2.600921 1.091373 11.766676 2.022284 2.579709 18.400485 1.189279 4.440307 -1.848580 1.477684 -0.178052 3.897500 -1.414111 -3.788727 -6.615290 -9.430393 -61.381314 -66.472161 107.720286 9.805346 15.364014 -25.567708 -9.560415 -6.991782 1.531791 -12.078925 -46.456856 30.404482 44.301901 -65.293066 -40.283734 -1.635921 -6.550433 4.834514 3.041149 -20.853348 -2.821198 -33.729670 73.342934 -37.455476 6.958945 -13.711701 11.370949 0.031693 -0.056096 -0.091292 -6.714593 -17.800288 6.105625 86.088056 82.052356 85.702426 1.331893 -21.750969 -18.646909 -0.002809 0.015443 -0.021414
-39.400558 57.919765 12.448385 176.470319 -51.030038 -2.838616 2.312051 20.516739 3.802238 1.104655 11.766961 2.037083 1.488019 14.704629 2.615507 1.109330 11.767318 2.042201 2.455003 18.299845 1.209940 4.260431 -1.980423 1.538247 -0.213244 3.894864 -1.464385 -3.869345 -6.475890 -9.453481 -61.637585 -66.492295 107.890300 9.755760 15.369009 -25.672574 -9.521141 -7.067609 1.581102 -12.410909 -46.410280 30.905959 44.586117 -65.709992 -39.949522 -1.703613 -6.529376 4.723761 2.965066 -20.864190 -2.862193 -33.668261 73.385766 -37.364892 7.001063 -13.709893 11.330754 0.029636 -0.072209 -0.100991 -6.740704 -17.794697 6.096375 86.241810 82.040932 85.887726 1.332247 -21.768510 -18.679310 0.017647 0.004396 -0.028743
-39.398249 57.919904 12.438510 176.506776 -51.023094 -2.841292 2.370424 20.513368 3.864451 1.128663 11.765799 2.063993 1.486899 14.700155 2.631265 1.128650 11.765809 2.063954 2.342194 18.229752 1.226256 4.091072 -2.090081 1.575533 -0.280167 3.908463 -1.505996 -3.908350 -6.371647 -9.510451 -61.970352 -66.488177 108.162917 9.698587 15.397844 -25.794135 -9.486178 -7.146785 1.634028 -12.744839 -46.347911 31.399321 44.888902 -66.056364 -39.693963 -1.773987 -6.490999 4.590033 2.890197 -20.880336 -2.938565 -33.602771 73.434864 -37.270791 7.035369 -13.712495 11.291138 0.034698 -0.084856 -0.105482 -6.764748 -17.803292 6.055571 86.319838 82.026888 85.973888 1.341344 -21.772960 -18.684954 0.011051 -0.000581 -0.034590
-39.398848 57.918424 12.428041 176.547600 -51.010088 -2.839573 2.403330 20.501342 3.897879 1.101422 11.764033 2.053371 1.499953 14.698391 2.645618 1.220558 11.758356 2.108132 2.241247 18.178013 1.241018 3.934032 -2.170741 1.588094 -0.354660 3.932906 -1.534494 -3.938253 -6.292348 -9.597098 -62.189298 -66.453804 108.279372 9.705380 15.361292 -25.798066 -9.452896 -7.221269 1.691590 -13.071376 -46.280790 31.875385 45.208338 -66.329720 -39.525741 -1.844891 -6.432819 4.447095 2.820654 -20.900816 -3.019889 -33.505038 73.485512 -37.157781 7.066806 -13.714740 11.265530 0.036343 -0.095874 -0.109266 -6.781298 -17.820028 6.008416 86.365121 82.013256 86.025236 1.349542 -21.774899 -18.685618 0.002832 -0.002362 -0.035253
-39.396542 57.916914 12.416553 176.580866 -51.002314 -2.860182 2.448254 20.491822 3.957422 1.077930 11.762273 2.044468 1.613720 14.679468 2.716210 1.207558 11.749223 2.119612 2.218374 18.112178 1.259326 3.727155 -2.198395 1.592929 -0.431864 3.965660 -1.556021 -3.972299 -6.228803 -9.701151 -62.340821 -66.420550 108.354322 9.692435 15.330299 -25.846096 -9.419427 -7.285532 1.749989 -13.372627 -46.219274 32.318494 45.518000 -66.537551 -39.429160 -1.909436 -6.353070 4.306659 2.775121 -20.912618 -3.052386 -33.503680 73.516444 -37.124308 7.077833 -13.718596 11.240980 0.060684 -0.103963 -0.116387 -6.796268 -17.829770 5.985438 86.464871 82.004585 86.147400 1.364620 -21.784216 -18.698960 -0.000608 -0.005478 -0.033644
-39.398303 57.910477 12.407448 176.623150 -50.961944 -2.875696 2.476673 20.450573 3.998600 1.171982 11.742107 2.115122 1.596223 14.662236 2.727677 1.194386 11.738544 2.130386 2.165493 18.078611 1.249462 3.573532 -2.226886 1.589197 -0.527286 4.005022 -1.578711 -4.001527 -6.177342 -9.810602 -62.572627 -66.361113 108.563267 9.696009 15.353895 -25.885273 -9.382170 -7.340358 1.804185 -13.630329 -46.170322 32.715013 45.779682 -66.688531 -39.372396 -1.963835 -6.264079 4.173539 2.729574 -20.956203 -3.096093 -33.465582 73.543015 -37.078591 7.083934 -13.720543 11.244573 0.074737 -0.108000 -0.128494 -6.785826 -17.888887 5.932462 86.710622 81.988537 86.452226 1.385129 -21.799459 -18.709760 -0.008164 -0.012686 -0.032627
